<?xml version="1.0" encoding="UTF-8"?><svg viewBox="0 0 464.001 464.001" xmlns="http://www.w3.org/2000/svg"><path d="m391.86 422.88l-0.726-6.536c-0.287-2.585-2.616-4.449-5.201-4.162l-0.407 0.045-7.027-56.214c-1.529-12.228-9.943-22.492-21.634-26.389l-39.047-13.016c-5.362-1.788-11.244-0.65-15.379 2.874l-11.502-3.834c-6.534-2.178-10.94-8.292-10.94-15.179v-25.802l34.461-14.359c17.888-7.451 29.539-24.928 29.539-44.306v-8c13.255 0 24-10.745 24-24 0-5.565-1.9-10.684-5.079-14.755 6.955-17.544 22.716-67.785 5.079-129.24 0 0-2.863-2.102-8.21-5.26-1.449-18.451-7.79-26.74-7.79-26.74l-29.199 9.733c-25.443-9.187-61.215-17.733-106.8-17.733 0 0-5.25 5.5-16 8 0 0-27.25-6-56-8l-16 40s-40-0.333-40 48c0 17.727 9.883 61.932 14.105 80.013-3.796 4.245-6.106 9.845-6.106 15.987 0 13.255 10.745 24 24 24v8c0 19.377 11.651 36.854 29.538 44.308l34.462 14.359v25.801c0 6.887-4.407 13.001-10.94 15.179l-11.502 3.834c-4.135-3.524-10.017-4.662-15.379-2.874l-39.047 13.016c-11.691 3.897-20.105 14.161-21.634 26.389l-7.027 56.214-0.407-0.045c-2.586-0.287-4.914 1.576-5.202 4.162l-0.726 6.536c-0.287 2.585 1.576 4.914 4.161 5.201l11.703 1.3v18.62c0 8.836 7.163 16 16 16h256c8.837 0 16-7.164 16-16v-18.621l11.702-1.3c2.585-0.287 4.449-2.616 4.161-5.201z" fill="#FDC88E"/><path d="M280,274h-96v26.468c0,5.759-3.186,10.831-8.017,13.659C243.077,325.871,280,274,280,274z" fill="#F5B97A"/><path d="m344 160v-16c0-22.091-17.909-40-40-40h-144c-22.091 0-40 17.909-40 40v16c-13.255 0-24 10.745-24 24s10.745 24 24 24v8c0 19.377 11.651 36.854 29.538 44.308l51.691 21.538c9.751 4.063 20.209 6.154 30.771 6.154s21.019-2.092 30.769-6.154l51.694-21.539c17.886-7.452 29.537-24.929 29.537-44.307v-8c13.255 0 24-10.745 24-24s-10.745-24-24-24z" fill="#FFD7A3"/><path d="m320 464v-40h67l-8.499-67.989c-1.529-12.228-9.943-22.492-21.634-26.389l-39.047-13.016c-6.8-2.267-14.45 0.154-18.291 6.206-14.18 22.344-39.105 37.187-67.528 37.187s-53.349-14.844-67.53-37.188c-3.841-6.052-11.491-8.473-18.291-6.206l-39.047 13.016c-11.691 3.897-20.105 14.161-21.634 26.389l-7.609 60.872 66.111 0.117v47.001h176z" fill="#9bce7a"/><path d="m176 192c-4.4 0-8-3.6-8-8v-8c0-4.4 3.6-8 8-8s8 3.6 8 8v8c0 4.4-3.601 8-8 8z" fill="#623F33"/><path d="m288 192c-4.4 0-8-3.6-8-8v-8c0-4.4 3.6-8 8-8s8 3.6 8 8v8c0 4.4-3.6 8-8 8z" fill="#623F33"/><path d="m232 248.22c-14.223 0-27.527-3.5-36.5-9.605-3.652-2.484-4.602-7.461-2.113-11.113 2.48-3.648 7.461-4.598 11.113-2.113 6.289 4.277 16.57 6.832 27.5 6.832s21.211-2.555 27.5-6.832c3.66-2.492 8.629-1.539 11.113 2.113 2.488 3.652 1.539 8.629-2.113 11.113-8.972 6.105-22.277 9.605-36.5 9.605z" fill="#E4B07B"/><path d="m162 243.72c-6.482-6.95-9.995-16.121-9.995-25.625v-70.606c22.079-11.943 86.599-43.492 152-43.492h-144c-2.754 0-5.421 0.321-8 0.881v-0.075c-18.257 3.707-32 19.843-32 39.194v16c-13.255 0-24 10.745-24 24s10.745 24 24 24v8c0 19.378 11.651 36.855 29.538 44.308l51.69 21.538c2.53 1.054 5.112 1.962 7.727 2.749-22.844-16.712-38.049-31.321-46.958-40.872z" fill="#FDC88E"/><path d="m144 430.04v-18.106c0-7.697-2.774-15.135-7.813-20.953l-44.046-50.844c-3.552 4.497-5.9027 9.9612-6.6417 15.874l-8.356 66.847c12.723 0.764 46.567 4.729 66.857 7.182z" fill="#8abe69"/><path d="m144 419.51l-65.936-7.326c-2.586-0.287-4.914 1.576-5.202 4.161l-0.726 6.536c-0.287 2.585 1.576 4.914 4.161 5.201l67.703 7.523v-16.095z" fill="#76ab5f"/><path d="m320 430.04v-18.106c0-7.697 2.774-15.135 7.813-20.953l44.046-50.829c3.552 4.497 5.9027 9.9456 6.6417 15.859l8.356 66.847c-12.723 0.764-46.568 4.729-66.857 7.182z" fill="#8abe69"/><path d="m320 419.51l65.936-7.326c2.586-0.287 4.914 1.576 5.202 4.161l0.726 6.536c0.287 2.585-1.576 4.914-4.161 5.201l-67.703 7.523v-16.095z" fill="#76ab5f"/><path d="m368 40s-2.863-2.102-8.21-5.26c-1.449-18.451-7.79-26.74-7.79-26.74l-29.199 9.733c-25.443-9.187-61.215-17.733-106.8-17.733 0 0-5.25 5.5-16 8 0 0-27.25-6-56-8l-16 40s-40-0.333-40 48c0 17.761 9.921 62.104 14.13 80.12 4.396-4.944 10.734-8.12 17.87-8.12v-16c0-21.893 17.604-39.625 39.421-39.942-6.142 13.324-7.421 23.942-7.421 23.942 20-13.334 46-24 80-24h72c22.091 0 40 17.909 40 40v16c7.708 0 14.491 3.698 18.882 9.346 6.934-17.456 22.786-67.774 5.117-129.35z" fill="#9D6E48"/><path d="m352 8l-29.199 9.733c-25.443-9.187-61.215-17.733-106.8-17.733 0 0-5.25 5.5-16 8 0 0-27.25-6-56-8l-16 40s-40-0.333-40 48c0 17.761 9.921 62.104 14.13 80.12 4.396-4.944 10.734-8.12 17.87-8.12v-16c0-20.881 16.059-37.829 36.468-39.644-2.145 5.966-4.468 14.467-4.468 23.644 31.5-40 76.242-54.431 112-64 35.5-9.5 40-24 40-24s34.999-2 47.999-32z" fill="#8D5F3D"/></svg>
