<?xml version="1.0" encoding="UTF-8" standalone="no"?>
<svg
   xmlns:dc="http://purl.org/dc/elements/1.1/"
   xmlns:cc="http://creativecommons.org/ns#"
   xmlns:rdf="http://www.w3.org/1999/02/22-rdf-syntax-ns#"
   xmlns:svg="http://www.w3.org/2000/svg"
   xmlns="http://www.w3.org/2000/svg"
   xmlns:sodipodi="http://sodipodi.sourceforge.net/DTD/sodipodi-0.dtd"
   xmlns:inkscape="http://www.inkscape.org/namespaces/inkscape"
   viewBox="0 0 64 63.999999"
   version="1.1"
   id="svg30"
   sodipodi:docname="favicon.svg"
   width="64"
   height="64"
   inkscape:version="0.92.1 r15371">
  <metadata
     id="metadata36">
    <rdf:RDF>
      <cc:Work
         rdf:about="">
        <dc:format>image/svg+xml</dc:format>
        <dc:type
           rdf:resource="http://purl.org/dc/dcmitype/StillImage" />
        <dc:title></dc:title>
      </cc:Work>
    </rdf:RDF>
  </metadata>
  <defs
     id="defs34" />
  <sodipodi:namedview
     pagecolor="#ffffff"
     bordercolor="#666666"
     borderopacity="1"
     objecttolerance="10"
     gridtolerance="10"
     guidetolerance="10"
     inkscape:pageopacity="0"
     inkscape:pageshadow="2"
     inkscape:window-width="1600"
     inkscape:window-height="836"
     id="namedview32"
     showgrid="false"
     showguides="false"
     inkscape:zoom="5.4138085"
     inkscape:cx="32.185091"
     inkscape:cy="30.440213"
     inkscape:window-x="0"
     inkscape:window-y="27"
     inkscape:window-maximized="1"
     inkscape:current-layer="svg30" />
  <g
     transform="matrix(0.94802076,0,0,0.94802076,1.679926,-217.32207)"
     id="g28"
     style="stroke-width:0.26458001">
    <path
       d="m 14.783,256.36 q 3.048,0 5.7404,1.0668 2.7432,1.016 4.7752,2.8448 2.0828,1.8288 3.2512,4.3688 1.2192,2.4892 1.2192,5.4864 0,3.0988 -1.2192,5.6896 -1.1684,2.5908 -3.2512,4.4704 -2.032,1.8796 -4.7752,2.9464 Q 17.831,284.3 14.783,284.3 11.7858,284.3 9.0934,283.284 6.401,282.2172 4.369,280.3376 2.337,278.458 1.1686,275.8672 2e-4,273.2256 2e-4,270.1268 q 0,-2.9972 1.1684,-5.5372 1.1684,-2.54 3.2004,-4.3688 2.032,-1.8288 4.7244,-2.8448 2.6924,-1.016 5.6896,-1.016 z m 0,2.9464 q -1.524,0 -2.794,0.8128 -1.27,0.762 -2.1844,2.1844 -0.8636,1.4224 -1.3716,3.4544 -0.4572,1.9812 -0.4572,4.4196 0,2.54 0.4572,4.572 0.508,2.032 1.3716,3.4544 0.9144,1.4224 2.1336,2.2352 1.27,0.762 2.8448,0.762 1.5748,0 2.8448,-0.762 1.3208,-0.8128 2.2352,-2.2352 0.9144,-1.4732 1.4224,-3.5052 0.508,-2.032 0.508,-4.5212 0,-2.4384 -0.508,-4.4196 -0.508,-1.9812 -1.4224,-3.4036 -0.9144,-1.4732 -2.2352,-2.2352 -1.27,-0.8128 -2.8448,-0.8128 z"
       id="path2"
       inkscape:connector-curvature="0" />
    <path
       d="m 43.086,272.67 q 0,1.8796 0.508,3.5052 0.5588,1.5748 1.4732,2.7432 0.9144,1.1684 2.1844,1.8288 1.27,0.6604 2.794,0.6604 3.048,0 4.6228,-2.794 1.5748,-2.794 1.5748,-8.2296 0,-5.2832 -1.5748,-8.0264 -1.524,-2.794 -4.6228,-2.794 -1.8288,0 -3.4036,1.016 -1.524,0.9652 -2.3876,2.7432 -1.1684,2.4384 -1.1684,6.1468 z m -0.1016,-12.294 h 0.2032 q 1.3208,-1.9304 3.4036,-2.9464 2.0828,-1.0668 4.7244,-1.0668 2.6924,0 4.9784,1.1176 2.3368,1.0668 4.0132,2.9464 1.7272,1.8796 2.6924,4.4196 0.9652,2.54 0.9652,5.4356 0,3.048 -1.0668,5.6388 -1.016,2.54 -2.8448,4.4196 -1.778,1.8796 -4.2164,2.9464 -2.3876,1.0668 -5.08,1.0668 -2.794,0 -5.2832,-1.0668 -2.4384,-1.1176 -3.9116,-2.8956 l -3.8608,3.4036 H 35.974 v -30.226 q 0,-4.7752 -0.6604,-6.5532 -0.1524,-0.3556 -0.3556,-0.6096 -0.2032,-0.254 -0.6096,-0.4064 -0.3556,-0.2032 -1.016,-0.3048 -0.6604,-0.1524 -1.7272,-0.3048 v -1.7272 l 11.379,-2.032 z"
       id="path4"
       inkscape:connector-curvature="0" />
  </g>
</svg>
