<?xml version="1.0" encoding="UTF-8"?><svg version="1.1" viewBox="0 0 633.9 523.77" xmlns="http://www.w3.org/2000/svg"><g transform="translate(-59.788 -73.078)"><g fill="none" stroke="#000" stroke-linecap="round" stroke-linejoin="round" stroke-miterlimit="10" stroke-width="2" style="paint-order:fill stroke markers"><path d="m166.85 287.68 187.87 63.486"/><path d="m201.83 412.06 152.88-60.894"/><path d="m354.71 351.16-150.29 161.95"/><path d="m65.788 383.55 288.92-32.391"/><path d="m432.45 461.29-77.738-110.13"/><path d="m305.48 585.67 49.234-234.51"/><path d="m418.2 590.85-63.486-239.69"/><path d="m251.06 567.53 103.65-216.37"/><path d="m266.61 336.91 88.103 14.252"/><path d="m485.57 466.47-130.86-115.31"/><path d="m424.68 517-69.964-165.84"/><path d="m148.71 344.68 206 6.4781"/><path d="m352.12 518.3 2.5912-167.14"/><path d="m127.98 171.07 226.73 180.09"/><path d="m245.88 217.71 108.83 133.45"/><path d="m173.32 85.558 181.39 265.6"/><path d="m309.37 177.55 45.347 173.61"/><path d="m345.64 243.62 9.0694 107.54"/><path d="m363.78 79.079-9.0694 272.08"/><path d="m396.17 217.71-41.46 133.45"/><path d="m437.63 200.87-82.92 150.29"/><path d="m470.02 287.68-115.31 63.486"/><path d="m560.72 198.28-206 152.88"/><path d="m569.79 154.23-215.07 196.94"/><path d="m633.27 256.58-278.56 94.581"/><path d="m354.71 351.16 206-12.956"/><path d="m687.69 397.8-332.98-46.643"/><path d="m546.47 404.28-191.75-53.121"/></g><g style="paint-order:stroke fill markers"><path d="m179.32 85.558c0 3.3137-2.6863 6-6 6s-6-2.6863-6-6c0-3.3137 2.6863-6 6-6s6 2.6863 6 6z"/><path d="m363.71 351.16c0 4.9706-4.0294 9-9 9s-9-4.0294-9-9 4.0294-9 9-9 9 4.0294 9 9z"/><path d="m369.78 79.079c0 3.3137-2.6863 6-6 6s-6-2.6863-6-6c0-3.3137 2.6863-6 6-6s6 2.6863 6 6z"/><path d="m443.63 200.87c0 3.3137-2.6863 6-6 6-3.3137 0-6-2.6863-6-6s2.6863-6 6-6c3.3137 0 6 2.6863 6 6z"/><path d="m172.85 287.68c0 3.3137-2.6863 6-6 6s-6-2.6863-6-6c0-3.3137 2.6863-6 6-6s6 2.6863 6 6z"/><path d="m315.37 177.55c0 3.3137-2.6863 6-6 6s-6-2.6863-6-6 2.6863-6 6-6 6 2.6863 6 6z"/><path d="m207.83 412.06c0 3.3137-2.6863 6-6 6s-6-2.6863-6-6 2.6863-6 6-6 6 2.6863 6 6z"/><path d="m575.79 154.23c0 3.3137-2.6863 6-6 6-3.3137 0-6-2.6863-6-6s2.6863-6 6-6c3.3137 0 6 2.6863 6 6z"/><path d="m639.27 256.58c0 3.3137-2.6863 6-6 6s-6-2.6863-6-6 2.6863-6 6-6 6 2.6863 6 6z"/><path d="m210.42 513.11c0 3.3137-2.6863 6-6 6s-6-2.6863-6-6 2.6863-6 6-6 6 2.6863 6 6z"/><path d="m71.788 383.55c0 3.3137-2.6863 6-6 6-3.3137 0-6-2.6863-6-6 0-3.3137 2.6863-6 6-6 3.3137 0 6 2.6863 6 6z"/><path d="m133.98 171.07c0 3.3137-2.6863 6-6 6s-6-2.6863-6-6c0-3.3137 2.6863-6 6-6s6 2.6863 6 6z"/><path d="m693.69 397.8c0 3.3137-2.6863 6-6 6s-6-2.6863-6-6 2.6863-6 6-6 6 2.6863 6 6z"/><path d="m438.45 461.29c0 3.3137-2.6863 6-6 6s-6-2.6863-6-6 2.6863-6 6-6 6 2.6863 6 6z"/><path d="m311.48 585.67c0 3.3137-2.6863 6-6 6s-6-2.6863-6-6c0-3.3137 2.6863-6 6-6s6 2.6863 6 6z"/><path d="m424.2 590.85c0 3.3137-2.6863 6-6 6-3.3137 0-6-2.6863-6-6 0-3.3137 2.6863-6 6-6 3.3137 0 6 2.6863 6 6z"/><path d="m257.06 567.53c0 3.3137-2.6863 6-6 6-3.3137 0-6-2.6863-6-6s2.6863-6 6-6c3.3137 0 6 2.6863 6 6z"/><path d="m272.61 336.91c0 3.3137-2.6863 6-6 6-3.3137 0-6-2.6863-6-6s2.6863-6 6-6c3.3137 0 6 2.6863 6 6z"/><path d="m351.64 243.62c0 3.3137-2.6863 6-6 6s-6-2.6863-6-6 2.6863-6 6-6 6 2.6863 6 6z"/><path d="m476.02 287.68c0 3.3137-2.6863 6-6 6s-6-2.6863-6-6c0-3.3137 2.6863-6 6-6s6 2.6863 6 6z"/><path d="m566.72 198.28c0 3.3137-2.6863 6-6 6s-6-2.6863-6-6 2.6863-6 6-6 6 2.6863 6 6z"/><path d="m552.47 404.28c0 3.3137-2.6863 6-6 6s-6-2.6863-6-6c0-3.3137 2.6863-6 6-6s6 2.6863 6 6z"/><path d="m491.57 466.47c0 3.3137-2.6863 6-6 6s-6-2.6863-6-6 2.6863-6 6-6 6 2.6863 6 6z"/><path d="m430.68 517c0 3.3137-2.6863 6-6 6s-6-2.6863-6-6 2.6863-6 6-6 6 2.6863 6 6z"/><path d="m154.71 344.68c0 3.3137-2.6863 6-6 6s-6-2.6863-6-6 2.6863-6 6-6 6 2.6863 6 6z"/><path d="m251.88 217.71c0 3.3137-2.6863 6-6 6-3.3137 0-6-2.6863-6-6 0-3.3137 2.6863-6 6-6 3.3137 0 6 2.6863 6 6z"/><path d="m402.17 217.71c0 3.3137-2.6863 6-6 6s-6-2.6863-6-6c0-3.3137 2.6863-6 6-6s6 2.6863 6 6z"/><path d="m358.12 518.3c0 3.3137-2.6863 6-6 6-3.3137 0-6-2.6863-6-6s2.6863-6 6-6c3.3137 0 6 2.6863 6 6z"/><path d="m566.72 338.2c0 3.3137-2.6863 6-6 6s-6-2.6863-6-6c0-3.3137 2.6863-6 6-6s6 2.6863 6 6z"/></g></g></svg>
