<?xml version="1.0" encoding="UTF-8"?><svg version="1.1" viewBox="0 0 633.9 523.77" xmlns="http://www.w3.org/2000/svg"><g transform="translate(-59.788 -73.078)"><g fill="none" stroke="#000" stroke-linecap="round" stroke-linejoin="round" stroke-miterlimit="10" stroke-width="2" style="paint-order:fill stroke markers"><path d="m354.71 351.16 206-12.956"/><path d="m560.72 338.2-14.252 66.077"/><path d="m560.72 338.2 126.97 59.599"/><path d="m633.27 256.58-72.555 81.625"/><path d="m470.02 287.68 90.694 50.529"/><path d="m309.37 177.55-63.486 40.164"/><path d="m363.78 79.079-117.9 138.63"/><path d="m173.32 85.558 72.555 132.15"/><path d="m127.98 171.07 117.9 46.643"/><path d="m345.64 243.62 124.38 44.051"/><path d="m396.17 217.71 73.851 69.964"/><path d="m437.63 200.87 32.391 86.807"/><path d="m569.79 154.23-99.763 133.45"/><path d="m560.72 198.28-90.694 89.398"/><path d="m470.02 287.68-268.19 124.38"/><path d="m201.83 412.06 358.89-73.851"/><path d="m201.83 412.06 150.29 106.24"/><path d="m352.12 518.3-106.24-300.59"/><path d="m201.83 412.06 2.5913 101.06"/><path d="m266.61 336.91-64.781 75.146"/><path d="m148.71 344.68 53.121 67.373"/><path d="m65.788 383.55 136.04 28.504"/><path d="m166.85 287.68 34.982 124.38"/><path d="m251.06 567.53 101.06-49.234"/><path d="m352.12 518.3-46.643 67.373"/><path d="m352.12 518.3 66.077 72.555"/><path d="m352.12 518.3 72.555-1.2956"/><path d="m432.45 461.29-80.329 57.008"/><path d="m560.72 338.2-75.146 128.27"/><path d="m245.88 217.71-44.051 194.34"/></g><g style="paint-order:stroke fill markers"><path d="m179.32 85.558c0 3.3137-2.6863 6-6 6s-6-2.6863-6-6c0-3.3137 2.6863-6 6-6s6 2.6863 6 6z"/><path d="m360.71 351.16c0 3.3137-2.6863 6-6 6s-6-2.6863-6-6 2.6863-6 6-6 6 2.6863 6 6z"/><path d="m369.78 79.079c0 3.3137-2.6863 6-6 6s-6-2.6863-6-6c0-3.3137 2.6863-6 6-6s6 2.6863 6 6z"/><path d="m443.63 200.87c0 3.3137-2.6863 6-6 6-3.3137 0-6-2.6863-6-6s2.6863-6 6-6c3.3137 0 6 2.6863 6 6z"/><path d="m172.85 287.68c0 3.3137-2.6863 6-6 6s-6-2.6863-6-6c0-3.3137 2.6863-6 6-6s6 2.6863 6 6z"/><path d="m315.37 177.55c0 3.3137-2.6863 6-6 6s-6-2.6863-6-6 2.6863-6 6-6 6 2.6863 6 6z"/><path d="m210.83 412.06c0 4.9706-4.0294 9-9 9-4.9706 0-9-4.0294-9-9s4.0294-9 9-9c4.9706 0 9 4.0294 9 9z"/><path d="m575.79 154.23c0 3.3137-2.6863 6-6 6-3.3137 0-6-2.6863-6-6s2.6863-6 6-6c3.3137 0 6 2.6863 6 6z"/><path d="m639.27 256.58c0 3.3137-2.6863 6-6 6s-6-2.6863-6-6 2.6863-6 6-6 6 2.6863 6 6z"/><path d="m210.42 513.11c0 3.3137-2.6863 6-6 6s-6-2.6863-6-6 2.6863-6 6-6 6 2.6863 6 6z"/><path d="m71.788 383.55c0 3.3137-2.6863 6-6 6-3.3137 0-6-2.6863-6-6 0-3.3137 2.6863-6 6-6 3.3137 0 6 2.6863 6 6z"/><path d="m133.98 171.07c0 3.3137-2.6863 6-6 6s-6-2.6863-6-6c0-3.3137 2.6863-6 6-6s6 2.6863 6 6z"/><path d="m693.69 397.8c0 3.3137-2.6863 6-6 6s-6-2.6863-6-6 2.6863-6 6-6 6 2.6863 6 6z"/><path d="m438.45 461.29c0 3.3137-2.6863 6-6 6s-6-2.6863-6-6 2.6863-6 6-6 6 2.6863 6 6z"/><path d="m311.48 585.67c0 3.3137-2.6863 6-6 6s-6-2.6863-6-6c0-3.3137 2.6863-6 6-6s6 2.6863 6 6z"/><path d="m424.2 590.85c0 3.3137-2.6863 6-6 6-3.3137 0-6-2.6863-6-6 0-3.3137 2.6863-6 6-6 3.3137 0 6 2.6863 6 6z"/><path d="m257.06 567.53c0 3.3137-2.6863 6-6 6-3.3137 0-6-2.6863-6-6s2.6863-6 6-6c3.3137 0 6 2.6863 6 6z"/><path d="m272.61 336.91c0 3.3137-2.6863 6-6 6-3.3137 0-6-2.6863-6-6s2.6863-6 6-6c3.3137 0 6 2.6863 6 6z"/><path d="m351.64 243.62c0 3.3137-2.6863 6-6 6s-6-2.6863-6-6 2.6863-6 6-6 6 2.6863 6 6z"/><path d="m479.02 287.68c0 4.9706-4.0294 9-9 9s-9-4.0294-9-9c0-4.9706 4.0294-9 9-9s9 4.0294 9 9z"/><path d="m566.72 198.28c0 3.3137-2.6863 6-6 6s-6-2.6863-6-6 2.6863-6 6-6 6 2.6863 6 6z"/><path d="m552.47 404.28c0 3.3137-2.6863 6-6 6s-6-2.6863-6-6c0-3.3137 2.6863-6 6-6s6 2.6863 6 6z"/><path d="m491.57 466.47c0 3.3137-2.6863 6-6 6s-6-2.6863-6-6 2.6863-6 6-6 6 2.6863 6 6z"/><path d="m430.68 517c0 3.3137-2.6863 6-6 6s-6-2.6863-6-6 2.6863-6 6-6 6 2.6863 6 6z"/><path d="m154.71 344.68c0 3.3137-2.6863 6-6 6s-6-2.6863-6-6 2.6863-6 6-6 6 2.6863 6 6z"/><path d="m254.88 217.71c0 4.9706-4.0294 9-9 9-4.9706 0-9-4.0294-9-9 0-4.9706 4.0294-9 9-9 4.9706 0 9 4.0294 9 9z"/><path d="m402.17 217.71c0 3.3137-2.6863 6-6 6s-6-2.6863-6-6c0-3.3137 2.6863-6 6-6s6 2.6863 6 6z"/><path d="m361.12 518.3c0 4.9706-4.0294 9-9 9-4.9706 0-9-4.0294-9-9s4.0294-9 9-9c4.9706 0 9 4.0294 9 9z"/><path d="m569.72 338.2c0 4.9706-4.0294 9-9 9-4.9706 0-9-4.0294-9-9 0-4.9706 4.0294-9 9-9 4.9706 0 9 4.0294 9 9z"/></g></g></svg>
